<?xml version="1.0" encoding="UTF-8" standalone="no"?><!DOCTYPE svg PUBLIC "-//W3C//DTD SVG 1.1//EN" "http://www.w3.org/Graphics/SVG/1.1/DTD/svg11.dtd"><svg width="100%" height="100%" viewBox="0 0 1430 971" version="1.1" xmlns="http://www.w3.org/2000/svg" xmlns:xlink="http://www.w3.org/1999/xlink" xml:space="preserve" xmlns:serif="http://www.serif.com/" style="fill-rule:evenodd;clip-rule:evenodd;stroke-linecap:round;stroke-linejoin:round;stroke-miterlimit:1.5;"><g><path d="M1285.76,243.54l0,483.753c0,44.176 -35.864,80.04 -80.04,80.04l-982.272,0c-44.175,0 -80.04,-35.864 -80.04,-80.04l0,-483.753c0,-44.175 35.865,-80.04 80.04,-80.04l982.272,-0c44.176,-0 80.04,35.865 80.04,80.04Z" style="fill:none;stroke:#fff;stroke-width:18.75px;"/><path d="M408.373,807.252l3.174,-0.241l3.128,-0.398l3.078,-0.549l5.99,-1.54l5.742,-2.102l5.463,-2.632l5.154,-3.13l4.811,-3.598l4.439,-4.034l4.033,-4.439l3.598,-4.811l3.131,-5.153l2.632,-5.464l2.101,-5.742l1.54,-5.989l0.55,-3.078l0.397,-3.128l0.242,-3.174l0.081,-3.216l0,-518.834l-0.081,-3.216l-0.242,-3.174l-0.397,-3.128l-0.55,-3.078l-1.54,-5.989l-2.101,-5.743l-2.632,-5.463l-3.131,-5.153l-3.598,-4.811l-4.033,-4.439l-4.439,-4.034l-4.811,-3.598l-5.154,-3.13l-5.463,-2.632l-5.742,-2.102l-5.99,-1.54l-3.078,-0.55l-3.128,-0.397l-3.174,-0.241l-3.216,-0.082l-199.25,-0l-3.216,0.082l-3.174,0.241l-3.128,0.397l-3.078,0.55l-5.989,1.54l-5.743,2.102l-5.463,2.632l-5.153,3.13l-4.811,3.598l-4.439,4.034l-4.034,4.439l-3.598,4.811l-3.13,5.153l-2.632,5.463l-2.102,5.743l-1.54,5.989l-0.55,3.078l-0.397,3.128l-0.241,3.174l-0.082,3.216l0,518.834l0.082,3.216l0.241,3.174l0.397,3.128l0.55,3.078l1.54,5.989l2.102,5.742l2.632,5.464l3.13,5.153l3.598,4.811l4.034,4.439l4.439,4.034l4.811,3.598l5.153,3.13l5.463,2.632l5.743,2.102l5.989,1.54l3.078,0.549l3.128,0.398l3.174,0.241l3.216,0.081l199.25,0l3.216,-0.081Zm-204.466,-326.002l0,-267.75l200.25,-0l0,49.5l-141.375,-0l0,57.375l129.75,-0l-0,45.75l-129.75,-0l0,65.625l144.375,-0l0,49.5l-203.25,-0Zm-10.5,276.083l0,-267.75l126,0l2.377,0.014l4.676,0.105l4.571,0.211l4.465,0.317l4.359,0.421l4.254,0.528l4.148,0.633l4.043,0.738l1.982,0.408l1.951,0.439l3.797,0.979l3.657,1.113l3.515,1.248l3.375,1.383l3.235,1.517l3.093,1.653l2.953,1.787l1.424,0.944l1.387,0.981l2.654,2.08l2.496,2.238l2.338,2.397l2.18,2.554l2.021,2.713l1.864,2.871l1.705,3.03l0.792,1.573l0.75,1.618l1.353,3.375l1.161,3.562l0.966,3.75l0.774,3.938l0.58,4.125l0.386,4.312l0.194,4.5l0.024,2.32l-0.036,2.505l-0.287,4.852l-0.574,4.64l-0.861,4.43l-1.149,4.219l-1.436,4.008l-1.722,3.797l-2.01,3.586l-1.113,1.713l-1.182,1.669l-2.573,3.223l-2.847,3.07l-3.123,2.918l-3.399,2.766l-3.673,2.613l-3.95,2.461l-4.224,2.308l-2.216,1.097l1.535,0.456l2.995,0.974l2.898,1.058l2.799,1.141l2.701,1.225l2.603,1.308l2.505,1.392l2.407,1.475l2.309,1.558l2.21,1.642l2.112,1.726l2.014,1.809l1.917,1.893l1.817,1.975l1.72,2.06l1.622,2.143l0.774,1.103l0.749,1.121l1.429,2.283l1.333,2.341l1.238,2.398l1.142,2.455l1.048,2.512l0.952,2.569l0.856,2.627l0.762,2.683l0.667,2.741l0.571,2.798l0.476,2.855l0.381,2.912l0.285,2.969l0.191,3.027l0.095,3.083l0.012,1.563l-0.03,2.511l-0.247,4.892l-0.492,4.723l-0.738,4.553l-0.985,4.382l-1.23,4.213l-1.476,4.043l-1.723,3.873l-0.954,1.873l-1.005,1.83l-2.139,3.534l-2.309,3.363l-2.478,3.193l-2.649,3.024l-2.818,2.853l-2.988,2.684l-3.159,2.513l-1.642,1.193l-1.679,1.153l-3.445,2.192l-3.563,2.039l-3.679,1.887l-3.797,1.734l-3.915,1.582l-4.031,1.43l-4.148,1.277l-2.119,0.581l-2.136,0.545l-4.295,0.985l-4.324,0.844l-4.353,0.703l-4.383,0.562l-4.412,0.422l-4.442,0.281l-4.47,0.141l-2.247,0.017l-129.75,0Zm118.5,-159.375l1.947,-0.029l3.762,-0.234l3.586,-0.469l3.41,-0.703l3.234,-0.938l3.059,-1.171l2.882,-1.407l2.707,-1.64l1.288,-0.909l1.226,-0.973l2.215,-2.169l1.899,-2.461l1.582,-2.753l1.265,-3.047l0.949,-3.34l0.633,-3.633l0.317,-3.926l0.039,-2.073l-0.013,-1.158l-0.105,-2.238l-0.212,-2.133l-0.316,-2.028l-0.422,-1.921l-0.527,-1.817l-0.633,-1.711l-0.738,-1.605l-0.409,-0.764l-0.879,-1.458l-1.969,-2.672l-2.25,-2.344l-2.531,-2.016l-1.371,-0.885l-1.433,-0.811l-3.023,-1.429l-3.234,-1.173l-3.445,-0.914l-1.802,-0.36l-1.837,-0.308l-3.727,-0.492l-3.797,-0.328l-3.867,-0.164l-1.96,-0.021l-55.125,0l0,62.625l59.625,0Zm3.375,113.625l2.145,-0.026l4.218,-0.211l4.125,-0.422l4.032,-0.632l1.98,-0.396l1.94,-0.457l3.703,-1.125l3.469,-1.406l3.234,-1.688l1.529,-0.949l1.462,-1.028l2.695,-2.321l2.391,-2.672l2.086,-3.023l0.928,-1.644l0.432,-0.858l0.779,-1.805l0.668,-1.921l0.557,-2.039l0.445,-2.157l0.334,-2.273l0.223,-2.391l0.111,-2.508l0.014,-1.298l-0.011,-1.277l-0.091,-2.486l-0.182,-2.393l-0.272,-2.302l-0.363,-2.209l-0.454,-2.116l-0.545,-2.025l-0.636,-1.932l-0.727,-1.84l-0.817,-1.747l-0.908,-1.656l-0.999,-1.563l-1.09,-1.47l-1.181,-1.379l-1.271,-1.286l-1.363,-1.194l-0.715,-0.562l-1.482,-1.067l-3.141,-1.928l-3.375,-1.652l-3.609,-1.377l-3.844,-1.102l-4.078,-0.826l-4.313,-0.551l-4.546,-0.275l-2.362,-0.035l-64.125,0l0,73.5l63,0Z" style="fill:#fff;fill-rule:nonzero;"/><path d="M492.657,660.958c0,-13.75 1.938,-26.687 5.813,-38.812c3.875,-12.125 9.562,-22.813 17.062,-32.063c7.5,-9.25 16.75,-16.562 27.75,-21.937c11,-5.375 23.625,-8.063 37.875,-8.063c14.25,0 26.875,2.688 37.875,8.063c11,5.375 20.25,12.687 27.75,21.937c7.5,9.25 13.188,19.938 17.063,32.063c3.875,12.125 5.812,25.062 5.812,38.812c0,13.75 -1.937,26.75 -5.812,39c-3.875,12.25 -9.563,22.938 -17.063,32.063c-7.5,9.125 -16.75,16.375 -27.75,21.75c-11,5.375 -23.625,8.062 -37.875,8.062c-14.25,0 -26.875,-2.687 -37.875,-8.062c-11,-5.375 -20.25,-12.625 -27.75,-21.75c-7.5,-9.125 -13.187,-19.813 -17.062,-32.063c-3.875,-12.25 -5.813,-25.25 -5.813,-39Zm14.25,0c0,11.5 1.625,22.563 4.875,33.188c3.25,10.625 8,20.062 14.25,28.312c6.25,8.25 14,14.813 23.25,19.688c9.25,4.875 19.875,7.312 31.875,7.312c12,0 22.625,-2.437 31.875,-7.312c9.25,-4.875 17,-11.438 23.25,-19.688c6.25,-8.25 11,-17.687 14.25,-28.312c3.25,-10.625 4.875,-21.688 4.875,-33.188c0,-11.5 -1.625,-22.562 -4.875,-33.187c-3.25,-10.625 -8,-20.063 -14.25,-28.313c-6.25,-8.25 -14,-14.812 -23.25,-19.687c-9.25,-4.875 -19.875,-7.313 -31.875,-7.313c-12,0 -22.625,2.438 -31.875,7.313c-9.25,4.875 -17,11.437 -23.25,19.687c-6.25,8.25 -11,17.688 -14.25,28.313c-3.25,10.625 -4.875,21.687 -4.875,33.187Zm267,-84l-42,0l0,134.625c0,7.75 0.875,13.875 2.625,18.375c1.75,4.5 4.438,7.938 8.063,10.313c3.625,2.375 8,3.812 13.125,4.312c5.125,0.5 11.062,0.625 17.812,0.375l0,12.375c-7.25,0.5 -14.312,0.438 -21.187,-0.187c-6.875,-0.625 -12.938,-2.5 -18.188,-5.625c-5.25,-3.125 -9.437,-7.813 -12.562,-14.063c-3.125,-6.25 -4.438,-14.875 -3.938,-25.875l0,-134.625l-35.625,0l0,-12.375l35.625,0l0,-60l14.25,0l0,60l42,0l0,12.375Z" style="fill:#fff;fill-rule:nonzero;stroke:#fff;stroke-width:4.17px;stroke-linecap:butt;stroke-miterlimit:2;"/><path d="M506.907,331.25l1.125,0c1.75,-6.25 4.938,-12.125 9.563,-17.625c4.625,-5.5 10.25,-10.25 16.875,-14.25c6.625,-4 14,-7.063 22.125,-9.188c8.125,-2.125 16.562,-3.062 25.312,-2.812l0,14.25c-7.5,-1 -16.062,-0.25 -25.687,2.25c-9.625,2.5 -18.813,8 -27.563,16.5c-3.5,3.75 -6.562,7.375 -9.187,10.875c-2.625,3.5 -4.813,7.375 -6.563,11.625c-1.75,4.25 -3.125,9 -4.125,14.25c-1,5.25 -1.625,11.5 -1.875,18.75l0,105.375l-14.25,-0l0,-192.75l14.25,-0l0,42.75Zm217.875,111.75l-0.75,-0c-2.25,5.75 -5.5,11.187 -9.75,16.312c-4.25,5.125 -9.437,9.688 -15.562,13.688c-6.125,4 -13.063,7.125 -20.813,9.375c-7.75,2.25 -16.25,3.375 -25.5,3.375c-20.5,-0 -36.375,-4.438 -47.625,-13.313c-11.25,-8.875 -16.875,-22.562 -16.875,-41.062c0,-11.25 2.25,-20.438 6.75,-27.563c4.5,-7.125 10.188,-12.75 17.063,-16.875c6.875,-4.125 14.5,-7.062 22.875,-8.812c8.375,-1.75 16.437,-3 24.187,-3.75l22.125,-1.875c10.25,-0.75 18.313,-1.938 24.188,-3.563c5.875,-1.625 10.312,-3.875 13.312,-6.75c3,-2.875 4.875,-6.562 5.625,-11.062c0.75,-4.5 1.125,-10.125 1.125,-16.875c0,-5.25 -1,-10.125 -3,-14.625c-2,-4.5 -5.125,-8.5 -9.375,-12c-4.25,-3.5 -9.75,-6.25 -16.5,-8.25c-6.75,-2 -15,-3 -24.75,-3c-17.25,-0 -31.187,4.25 -41.812,12.75c-10.625,8.5 -16.438,21.375 -17.438,38.625l-14.25,0c1,-21.25 7.813,-37.188 20.438,-47.813c12.625,-10.625 30.562,-15.937 53.812,-15.937c23.25,-0 40.188,4.562 50.813,13.687c10.625,9.125 15.937,21.063 15.937,35.813l0,112.125c0,2.75 0.063,5.5 0.188,8.25c0.125,2.75 0.562,5.25 1.312,7.5c0.75,2.25 2,4.062 3.75,5.437c1.75,1.375 4.25,2.063 7.5,2.063c2.5,-0 6,-0.375 10.5,-1.125l0,12c-3.75,1 -7.625,1.5 -11.625,1.5c-5.75,-0 -10.312,-0.75 -13.687,-2.25c-3.375,-1.5 -5.938,-3.5 -7.688,-6c-1.75,-2.5 -2.937,-5.438 -3.562,-8.813c-0.625,-3.375 -0.938,-7.062 -0.938,-11.062l0,-10.125Zm0,-71.25c-3.5,4.25 -8.812,7.125 -15.937,8.625c-7.125,1.5 -15.063,2.625 -23.813,3.375l-24,2.25c-7,0.75 -14,1.812 -21,3.187c-7,1.375 -13.312,3.688 -18.937,6.938c-5.625,3.25 -10.188,7.687 -13.688,13.312c-3.5,5.625 -5.25,12.938 -5.25,21.938c0,14.25 4.5,24.812 13.5,31.687c9,6.875 21.375,10.313 37.125,10.313c16.25,-0 29.125,-2.938 38.625,-8.813c9.5,-5.875 16.75,-12.625 21.75,-20.25c5,-7.625 8.188,-15 9.563,-22.125c1.375,-7.125 2.062,-11.937 2.062,-14.437l0,-36Zm66.375,45.375c0.5,9 2.5,16.937 6,23.812c3.5,6.875 8.063,12.75 13.688,17.625c5.625,4.875 12.187,8.563 19.687,11.063c7.5,2.5 15.625,3.75 24.375,3.75c6.25,-0 12.938,-0.563 20.063,-1.688c7.125,-1.125 13.75,-3.187 19.875,-6.187c6.125,-3 11.187,-7.188 15.187,-12.563c4,-5.375 6,-12.187 6,-20.437c0,-10.75 -3.25,-18.875 -9.75,-24.375c-6.5,-5.5 -14.687,-9.75 -24.562,-12.75c-9.875,-3 -20.5,-5.438 -31.875,-7.313c-11.375,-1.875 -22,-4.687 -31.875,-8.437c-9.875,-3.75 -18.063,-9.063 -24.563,-15.938c-6.5,-6.875 -9.75,-16.937 -9.75,-30.187c0,-9.5 2.125,-17.438 6.375,-23.813c4.25,-6.375 9.688,-11.437 16.313,-15.187c6.625,-3.75 14.062,-6.438 22.312,-8.063c8.25,-1.625 16.5,-2.437 24.75,-2.437c10,-0 19.375,1.125 28.125,3.375c8.75,2.25 16.313,5.875 22.688,10.875c6.375,5 11.375,11.375 15,19.125c3.625,7.75 5.437,17.125 5.437,28.125l-14.25,0c0,-8.75 -1.437,-16.25 -4.312,-22.5c-2.875,-6.25 -6.875,-11.313 -12,-15.188c-5.125,-3.875 -11.188,-6.75 -18.188,-8.625c-7,-1.875 -14.5,-2.812 -22.5,-2.812c-6.5,-0 -13.062,0.625 -19.687,1.875c-6.625,1.25 -12.563,3.375 -17.813,6.375c-5.25,3 -9.562,6.875 -12.937,11.625c-3.375,4.75 -5.063,10.5 -5.063,17.25c0,7.75 1.875,14 5.625,18.75c3.75,4.75 8.688,8.562 14.813,11.437c6.125,2.875 13,5.188 20.625,6.938c7.625,1.75 15.312,3.5 23.062,5.25c9.5,1.75 18.438,3.812 26.813,6.187c8.375,2.375 15.625,5.625 21.75,9.75c6.125,4.125 10.937,9.438 14.437,15.938c3.5,6.5 5.25,14.75 5.25,24.75c0,10.5 -2.375,19.125 -7.125,25.875c-4.75,6.75 -10.75,12.187 -18,16.312c-7.25,4.125 -15.312,7 -24.187,8.625c-8.875,1.625 -17.563,2.438 -26.063,2.438c-11,-0 -21.187,-1.438 -30.562,-4.313c-9.375,-2.875 -17.563,-7.25 -24.563,-13.125c-7,-5.875 -12.5,-13.062 -16.5,-21.562c-4,-8.5 -6.125,-18.375 -6.375,-29.625l14.25,-0Zm179.25,-30.375l0,2.25c0,11.25 1.5,22 4.5,32.25c3,10.25 7.438,19.25 13.313,27c5.875,7.75 13.25,13.875 22.125,18.375c8.875,4.5 19.187,6.75 30.937,6.75c19.25,-0 34.5,-5.063 45.75,-15.188c11.25,-10.125 19,-24.187 23.25,-42.187l14.25,-0c-4.25,22.5 -13.437,39.75 -27.562,51.75c-14.125,12 -32.813,18 -56.063,18c-14.25,-0 -26.687,-2.563 -37.312,-7.688c-10.625,-5.125 -19.5,-12.125 -26.625,-21c-7.125,-8.875 -12.438,-19.375 -15.938,-31.5c-3.5,-12.125 -5.25,-25.187 -5.25,-39.187c0,-13.5 1.813,-26.438 5.438,-38.813c3.625,-12.375 9.062,-23.25 16.312,-32.625c7.25,-9.375 16.313,-16.875 27.188,-22.5c10.875,-5.625 23.687,-8.437 38.437,-8.437c13.5,-0 25.438,2.5 35.813,7.5c10.375,5 19.062,11.812 26.062,20.437c7,8.625 12.313,18.625 15.938,30c3.625,11.375 5.437,23.563 5.437,36.563c0,1.25 -0.062,2.687 -0.187,4.312c-0.125,1.625 -0.188,2.938 -0.188,3.938l-155.625,-0Zm141.375,-12.375c-0.5,-10.5 -2.25,-20.438 -5.25,-29.813c-3,-9.375 -7.437,-17.625 -13.312,-24.75c-5.875,-7.125 -13,-12.812 -21.375,-17.062c-8.375,-4.25 -17.938,-6.375 -28.688,-6.375c-11.5,-0 -21.625,2.187 -30.375,6.562c-8.75,4.375 -16.125,10.125 -22.125,17.25c-6,7.125 -10.625,15.438 -13.875,24.938c-3.25,9.5 -5.25,19.25 -6,29.25l141,-0Zm61.875,-43.125l1.125,0c1.75,-6.25 4.938,-12.125 9.563,-17.625c4.625,-5.5 10.25,-10.25 16.875,-14.25c6.625,-4 14,-7.063 22.125,-9.188c8.125,-2.125 16.562,-3.062 25.312,-2.812l0,14.25c-7.5,-1 -16.062,-0.25 -25.687,2.25c-9.625,2.5 -18.813,8 -27.563,16.5c-3.5,3.75 -6.562,7.375 -9.187,10.875c-2.625,3.5 -4.813,7.375 -6.563,11.625c-1.75,4.25 -3.125,9 -4.125,14.25c-1,5.25 -1.625,11.5 -1.875,18.75l0,105.375l-14.25,-0l0,-192.75l14.25,-0l0,42.75Z" style="fill:#fff;fill-rule:nonzero;stroke:#fff;stroke-width:4.17px;stroke-linecap:butt;stroke-miterlimit:2;"/><path d="M914.16,687.607c5.303,31.751 50.881,42.968 104.417,26.732l-3.427,-11.001c-45.906,14.047 -85.836,6.028 -89.525,-17.577c-9.5,-57.87 110.001,-49.376 102.663,-96.244c-3.601,-23.003 -56.411,-26.158 -97.056,-6.011c-7.299,3.499 -2.175,13.798 4.969,10.194c30.395,-14.763 78.613,-15.763 80.798,-2.397c1.548,9.907 -7.044,15.512 -39.219,28.435c-30.832,12.342 -70.113,27.947 -63.62,67.869Z" style="fill:#fff;fill-rule:nonzero;"/><path d="M1059.57,702.462l131.187,-96.67l-14.396,-19.506l-131.175,96.587l-13.776,21.263c-1.341,2.166 0.753,5.103 3.206,4.542l24.954,-6.216Zm141.248,-103.948l11.583,-8.402c5.899,-4.353 6.945,-9.608 3.013,-14.936l-2.446,-3.413c-3.874,-5.151 -9.406,-5.477 -15.102,-1.347l-11.584,8.402l14.536,19.696Z" style="fill:#fff;fill-rule:nonzero;"/></g></svg>