<?xml version="1.0" encoding="UTF-8" standalone="no"?><!DOCTYPE svg PUBLIC "-//W3C//DTD SVG 1.1//EN" "http://www.w3.org/Graphics/SVG/1.1/DTD/svg11.dtd"><svg width="100%" height="100%" viewBox="0 0 2363 2363" version="1.1" xmlns="http://www.w3.org/2000/svg" xmlns:xlink="http://www.w3.org/1999/xlink" xml:space="preserve" xmlns:serif="http://www.serif.com/" style="fill-rule:evenodd;clip-rule:evenodd;stroke-linejoin:round;stroke-miterlimit:2;"><rect id="Principal" x="0" y="0" width="2362.2" height="2362.2" style="fill:none;"/><g id="Principal1" serif:id="Principal"><g><path d="M153.479,2145.48l105.688,-211.376c7.812,-14.613 23.221,-24.564 40.935,-24.564c17.715,-0 33.124,9.951 40.936,24.564l105.688,211.376l-0.541,-0l-64.521,-29.417l-16.275,-32.55l-116.456,-28.236l-30.393,60.786l-64.521,29.417l-0.54,-0Zm97.242,-93.778l98.763,0l-49.382,-98.763l-49.381,98.763Z" style="fill:#001431;"/><path d="M528.285,2078.02l-0,67.461l-47.585,-0l0,-235.94l175.547,-0c16.836,-0 30.905,1.326 42.206,3.978c11.301,2.652 20.411,7.034 27.33,13.146c6.919,6.112 11.82,14.011 14.703,23.698c2.883,9.687 4.324,21.449 4.324,35.287l0,20.411c0,14.069 -1.383,25.716 -4.151,34.942c-2.768,9.225 -7.553,16.605 -14.357,22.141c-6.804,5.535 -15.856,9.398 -27.157,11.589c-11.301,2.191 -25.601,3.287 -42.898,3.287l-127.962,-0Zm163.941,-90.294c-0,-12.685 -2.71,-21.334 -8.13,-25.947c-5.42,-4.612 -15.165,-6.919 -29.233,-6.919l-126.578,0l-0,80.607l127.27,0c13.838,0 23.409,-2.133 28.714,-6.4c5.304,-4.266 7.957,-12.627 7.957,-25.081l-0,-16.26Z" style="fill:#001431;fill-rule:nonzero;"/><path d="M869.342,2145.48c-17.298,-0 -31.712,-1.442 -43.244,-4.325c-11.532,-2.883 -20.757,-7.496 -27.676,-13.838c-6.919,-6.342 -11.82,-14.645 -14.703,-24.909c-2.883,-10.263 -4.325,-22.89 -4.325,-37.881l0,-74.034c0,-14.761 1.442,-27.331 4.325,-37.709c2.883,-10.379 7.784,-18.739 14.703,-25.082c6.919,-6.342 16.144,-10.955 27.676,-13.838c11.532,-2.883 25.946,-4.324 43.244,-4.324l118.909,-0l0,44.628l-118.909,-0c-7.611,-0 -17.838,0.634 -22.681,1.902c-4.844,1.269 -8.707,3.287 -11.59,6.054c-2.883,2.768 -4.843,6.458 -5.881,11.071c-1.038,4.613 -1.557,10.379 -1.557,17.298l0,15.913l185.724,0l0,41.861l-185.724,-0l0,16.605c0,7.15 0.519,13.031 1.557,17.644c1.038,4.613 2.941,8.303 5.708,11.071c2.768,2.767 6.631,4.67 11.59,5.708c4.958,1.038 15.243,1.557 22.854,1.557l164.674,-0l-0,44.628l-164.674,-0Z" style="fill:#001431;fill-rule:nonzero;"/><path d="M1268.81,2145.48l-143.036,-85.797l0,85.797l-47.239,-0l0,-235.94l169.913,-0c16.606,-0 30.79,1.037 42.552,3.113c11.762,2.076 21.391,5.766 28.887,11.071c7.496,5.304 12.973,12.569 16.433,21.795c3.459,9.225 5.189,20.872 5.189,34.941l0,16.26c0,13.607 -1.845,24.851 -5.535,33.73c-3.69,8.88 -9.399,15.914 -17.125,21.103c-7.726,5.19 -17.47,8.822 -29.233,10.898c-11.762,2.076 -25.716,3.113 -41.86,3.113l-37.067,0l148.76,79.916l-90.639,-0Zm20.114,-162.252c0,-6.228 -0.692,-11.302 -2.075,-15.222c-1.384,-3.921 -3.691,-6.919 -6.92,-8.995c-3.228,-2.076 -7.726,-3.46 -13.492,-4.152c-5.766,-0.691 -12.915,-1.037 -21.449,-1.037l-119.214,-0l0,71.958l119.214,-0c8.534,-0 15.626,-0.346 21.276,-1.038c5.651,-0.692 10.148,-2.076 13.493,-4.151c3.344,-2.076 5.708,-5.074 7.092,-8.995c1.383,-3.921 2.075,-9.11 2.075,-15.568l0,-12.8Z" style="fill:#001431;fill-rule:nonzero;"/><path d="M1495.96,2145.48l-13.343,-195.621l-98.943,0l0,-40.319l250.816,-0l-0,40.319l-98.943,0l-10.378,195.621l-29.209,-0Z" style="fill:#001431;fill-rule:nonzero;"/><path d="M1749.04,2145.48c-17.297,-0 -31.712,-1.442 -43.244,-4.325c-11.532,-2.883 -20.757,-7.496 -27.676,-13.838c-6.919,-6.342 -11.82,-14.645 -14.703,-24.909c-2.883,-10.263 -4.325,-22.89 -4.325,-37.881l0,-74.034c0,-14.761 1.442,-27.331 4.325,-37.709c2.883,-10.379 7.784,-18.739 14.703,-25.082c6.919,-6.342 16.144,-10.955 27.676,-13.838c11.532,-2.883 25.947,-4.324 43.244,-4.324l84.808,-0l0,44.628l-84.808,-0c-7.611,-0 -18.838,0.634 -23.681,1.902c-4.844,1.269 -8.707,3.287 -11.59,6.054c-2.883,2.768 -4.843,6.458 -5.881,11.071c-1.038,4.613 -1.557,10.379 -1.557,17.298l0,15.913l177.829,0l-0,41.861l-177.829,-0l0,16.605c0,7.15 0.519,13.031 1.557,17.644c1.038,4.613 2.941,8.303 5.708,11.071c2.768,2.767 6.631,4.67 11.59,5.708c4.958,1.038 16.243,1.557 23.854,1.557l164.674,-0l-0,44.628l-164.674,-0Z" style="fill:#001431;fill-rule:nonzero;"/><path d="M2141.31,2145.48l-136.462,-110.97l0,110.97l-47.239,-0l0,-235.94l47.239,50.997l0,58.922l143.695,-109.919l60.92,-0l-144.922,117.97l144.922,117.97l-68.153,-0Z" style="fill:#001431;fill-rule:nonzero;"/></g><path d="M275.5,1745.73l652.767,-1305.53c48.253,-90.255 143.423,-151.72 252.835,-151.72c109.413,0 204.583,61.465 252.835,151.72l652.768,1305.53l-3.34,0l-398.505,-181.688l-100.52,-201.041l-719.277,-174.396l-187.719,375.437l-398.505,181.688l-3.339,0Zm600.602,-579.204l610,-0l-305,-610l-305,610Z" style="fill:#001431;"/></g></svg>