<?xml version="1.0" encoding="UTF-8" standalone="no"?><!DOCTYPE svg PUBLIC "-//W3C//DTD SVG 1.1//EN" "http://www.w3.org/Graphics/SVG/1.1/DTD/svg11.dtd"><svg width="100%" height="100%" viewBox="0 0 1842 1075" version="1.1" xmlns="http://www.w3.org/2000/svg" xmlns:xlink="http://www.w3.org/1999/xlink" xml:space="preserve" xmlns:serif="http://www.serif.com/" style="fill-rule:evenodd;clip-rule:evenodd;stroke-linejoin:round;stroke-miterlimit:2;"><g><path d="M324.164,810.047l2.67,-0.203l2.63,-0.335l2.589,-0.462l5.037,-1.295l4.829,-1.767l4.594,-2.214l4.334,-2.632l4.046,-3.026l3.733,-3.392l3.392,-3.733l3.026,-4.046l2.632,-4.334l2.214,-4.595l1.767,-4.829l1.295,-5.037l0.463,-2.588l0.334,-2.631l0.203,-2.669l0.069,-2.705l-0,-440.108l-0.069,-2.705l-0.203,-2.669l-0.334,-2.631l-0.463,-2.588l-1.295,-5.037l-1.767,-4.829l-2.214,-4.594l-2.632,-4.334l-3.026,-4.046l-3.392,-3.733l-3.733,-3.393l-4.046,-3.025l-4.334,-2.633l-4.594,-2.213l-4.829,-1.768l-5.037,-1.295l-2.589,-0.462l-2.63,-0.334l-2.67,-0.203l-2.705,-0.069l-221.49,0l-2.705,0.069l-2.669,0.203l-2.631,0.334l-2.588,0.462l-5.037,1.295l-4.829,1.768l-4.595,2.213l-4.334,2.633l-4.046,3.025l-3.733,3.393l-3.392,3.733l-3.026,4.046l-2.632,4.334l-2.214,4.594l-1.767,4.829l-1.295,5.037l-0.462,2.588l-0.335,2.631l-0.203,2.669l-0.068,2.705l0,440.108l0.068,2.705l0.203,2.669l0.335,2.631l0.462,2.588l1.295,5.037l1.767,4.829l2.214,4.595l2.632,4.334l3.026,4.046l3.392,3.733l3.733,3.392l4.046,3.026l4.334,2.632l4.595,2.214l4.829,1.767l5.037,1.295l2.588,0.462l2.631,0.335l2.669,0.203l2.705,0.068l221.49,-0l2.705,-0.068Zm-220.358,-277.943l78.526,-117.947l-72.534,-107.223l57.396,-0l44.151,71.903l45.728,-71.903l54.243,-0l-72.219,107.539l78.526,117.631l-58.973,-0l-49.197,-77.895l-50.143,77.895l-55.504,-0Zm-14.349,235.962l-0,-225.17l69.695,0l52.666,154.844l0.631,0l49.827,-154.844l69.696,0l-0,225.17l-46.359,0l0,-159.574l-0.63,0l-55.189,159.574l-38.159,0l-55.189,-157.997l-0.631,-0l-0,157.997l-46.358,0Z" style="fill:#fff;fill-rule:nonzero;"/><path d="M510.153,735.899l-0.631,0c-1.892,4.836 -4.625,9.409 -8.199,13.719c-3.575,4.31 -7.937,8.146 -13.088,11.51c-5.151,3.364 -10.985,5.992 -17.503,7.884c-6.517,1.893 -13.666,2.839 -21.445,2.839c-17.239,-0 -30.59,-3.732 -40.051,-11.196c-9.461,-7.463 -14.191,-18.974 -14.191,-34.532c-0,-9.461 1.892,-17.187 5.676,-23.179c3.785,-5.992 8.568,-10.723 14.349,-14.192c5.782,-3.469 12.195,-5.939 19.238,-7.411c7.043,-1.472 13.823,-2.523 20.341,-3.153l18.606,-1.577c8.62,-0.631 15.4,-1.63 20.341,-2.996c4.941,-1.367 8.673,-3.259 11.196,-5.677c2.523,-2.418 4.099,-5.519 4.73,-9.303c0.631,-3.784 0.946,-8.515 0.946,-14.191c0,-4.416 -0.841,-8.515 -2.523,-12.3c-1.682,-3.784 -4.31,-7.148 -7.884,-10.091c-3.574,-2.944 -8.199,-5.256 -13.876,-6.938c-5.676,-1.682 -12.614,-2.523 -20.814,-2.523c-14.507,-0 -26.228,3.574 -35.163,10.722c-8.935,7.148 -13.824,17.976 -14.665,32.483l-11.983,-0c0.841,-17.871 6.57,-31.274 17.187,-40.209c10.617,-8.936 25.702,-13.403 45.255,-13.403c19.552,-0 33.796,3.837 42.732,11.511c8.935,7.673 13.403,17.712 13.403,30.117l-0,94.294c-0,2.312 0.052,4.625 0.157,6.938c0.105,2.312 0.473,4.415 1.104,6.307c0.631,1.892 1.682,3.417 3.154,4.573c1.471,1.156 3.574,1.734 6.307,1.734c2.102,0 5.046,-0.315 8.83,-0.946l0,10.092c-3.153,0.841 -6.412,1.261 -9.776,1.261c-4.836,0 -8.673,-0.63 -11.511,-1.892c-2.838,-1.261 -4.993,-2.943 -6.465,-5.046c-1.472,-2.102 -2.47,-4.572 -2.996,-7.411c-0.525,-2.838 -0.788,-5.939 -0.788,-9.303l-0,-8.515Zm-0,-59.919c-2.944,3.574 -7.411,5.992 -13.403,7.253c-5.992,1.262 -12.667,2.208 -20.026,2.839l-20.183,1.892c-5.887,0.631 -11.774,1.524 -17.661,2.68c-5.886,1.157 -11.195,3.102 -15.925,5.835c-4.731,2.733 -8.568,6.465 -11.511,11.195c-2.944,4.731 -4.415,10.88 -4.415,18.449c-0,11.984 3.784,20.867 11.353,26.648c7.568,5.782 17.976,8.673 31.221,8.673c13.666,-0 24.493,-2.471 32.482,-7.411c7.99,-4.941 14.087,-10.618 18.291,-17.03c4.205,-6.412 6.886,-12.615 8.042,-18.606c1.157,-5.992 1.735,-10.04 1.735,-12.142l-0,-30.275Zm172.189,-19.868c-0.631,-7.148 -2.471,-13.456 -5.519,-18.922c-3.049,-5.466 -6.991,-9.986 -11.826,-13.56c-4.836,-3.575 -10.46,-6.308 -16.872,-8.2c-6.413,-1.892 -13.298,-2.838 -20.657,-2.838c-10.091,-0 -19.027,2.05 -26.806,6.149c-7.779,4.1 -14.296,9.566 -19.552,16.399c-5.256,6.833 -9.251,14.612 -11.984,23.337c-2.733,8.725 -4.1,17.713 -4.1,26.964c0,10.933 1.262,21.024 3.785,30.275c2.522,9.251 6.412,17.292 11.668,24.125c5.256,6.833 11.774,12.142 19.553,15.926c7.779,3.785 16.924,5.677 27.436,5.677c7.569,-0 14.56,-1.262 20.972,-3.785c6.412,-2.523 12.089,-5.992 17.03,-10.407c4.94,-4.415 8.988,-9.723 12.141,-15.926c3.154,-6.202 5.256,-12.982 6.308,-20.341l11.983,0c-1.261,9.672 -3.889,18.292 -7.884,25.86c-3.994,7.569 -9.04,13.929 -15.137,19.08c-6.097,5.151 -13.035,9.093 -20.814,11.826c-7.779,2.733 -15.979,4.1 -24.599,4.1c-13.245,-0 -24.546,-2.365 -33.901,-7.096c-9.356,-4.73 -17.03,-11.09 -23.022,-19.079c-5.992,-7.99 -10.407,-17.188 -13.245,-27.595c-2.839,-10.407 -4.258,-21.287 -4.258,-32.64c0,-11.353 1.63,-22.076 4.888,-32.167c3.259,-10.092 8.042,-18.922 14.35,-26.491c6.307,-7.569 14.086,-13.561 23.337,-17.976c9.25,-4.415 19.867,-6.622 31.851,-6.622c8.831,-0 17.083,1.104 24.756,3.311c7.674,2.208 14.507,5.519 20.499,9.934c5.992,4.415 10.88,10.039 14.665,16.872c3.784,6.833 6.097,14.77 6.938,23.81l-11.984,0Zm53.612,-113.216l-0,97.763l0.63,0c2.103,-6.097 5.099,-11.511 8.988,-16.241c3.89,-4.731 8.41,-8.778 13.561,-12.142c5.151,-3.363 10.775,-5.886 16.872,-7.568c6.097,-1.682 12.299,-2.523 18.606,-2.523c9.461,-0 17.503,1.156 24.126,3.469c6.622,2.312 12.036,5.361 16.241,9.145c4.205,3.785 7.516,8.042 9.934,12.773c2.418,4.73 4.152,9.513 5.204,14.349c1.051,4.835 1.682,9.513 1.892,14.033c0.21,4.521 0.315,8.463 0.315,11.827l0,100.285l-11.984,0l0,-102.493c0,-3.995 -0.315,-9.04 -0.946,-15.138c-0.631,-6.097 -2.47,-11.931 -5.519,-17.502c-3.048,-5.572 -7.674,-10.355 -13.876,-14.349c-6.202,-3.995 -14.769,-5.992 -25.702,-5.992c-9.251,-0 -17.45,1.682 -24.598,5.046c-7.149,3.363 -13.246,8.041 -18.291,14.033c-5.046,5.992 -8.883,13.14 -11.511,21.445c-2.628,8.305 -3.942,17.398 -3.942,27.279l-0,87.671l-11.984,0l-0,-225.17l11.984,0Zm154.528,32.483l0,-32.483l11.984,0l0,32.483l-11.984,-0Zm0,192.687l0,-162.097l11.984,0l0,162.097l-11.984,0Zm50.143,-162.097l11.984,0l-0,34.69l0.631,0c2.102,-6.097 5.098,-11.511 8.988,-16.241c3.889,-4.731 8.409,-8.778 13.56,-12.142c5.151,-3.363 10.775,-5.886 16.872,-7.568c6.097,-1.682 12.299,-2.523 18.607,-2.523c9.461,-0 17.502,1.156 24.125,3.469c6.623,2.312 12.037,5.361 16.241,9.145c4.205,3.785 7.517,8.042 9.934,12.773c2.418,4.73 4.153,9.513 5.204,14.349c1.051,4.835 1.682,9.513 1.892,14.033c0.21,4.521 0.315,8.463 0.315,11.827l0,100.285l-11.983,0l-0,-102.493c-0,-3.995 -0.316,-9.04 -0.947,-15.138c-0.63,-6.097 -2.47,-11.931 -5.518,-17.502c-3.049,-5.572 -7.674,-10.355 -13.876,-14.349c-6.203,-3.995 -14.77,-5.992 -25.703,-5.992c-9.25,-0 -17.45,1.682 -24.598,5.046c-7.148,3.363 -13.245,8.041 -18.291,14.033c-5.046,5.992 -8.883,13.14 -11.511,21.445c-2.628,8.305 -3.942,17.398 -3.942,27.279l-0,87.671l-11.984,0l0,-162.097Zm168.405,82.626l-0,1.892c-0,9.461 1.261,18.501 3.784,27.121c2.523,8.62 6.255,16.189 11.196,22.706c4.94,6.518 11.142,11.669 18.606,15.453c7.464,3.785 16.136,5.677 26.018,5.677c16.188,-0 29.013,-4.258 38.474,-12.773c9.461,-8.514 15.978,-20.341 19.553,-35.478l11.983,-0c-3.574,18.922 -11.3,33.429 -23.179,43.52c-11.879,10.092 -27.594,15.138 -47.147,15.138c-11.984,-0 -22.443,-2.155 -31.379,-6.465c-8.935,-4.31 -16.398,-10.197 -22.39,-17.661c-5.992,-7.463 -10.46,-16.293 -13.403,-26.49c-2.944,-10.197 -4.416,-21.182 -4.416,-32.956c0,-11.353 1.525,-22.233 4.573,-32.64c3.049,-10.407 7.622,-19.553 13.719,-27.437c6.097,-7.884 13.718,-14.191 22.864,-18.922c9.145,-4.73 19.92,-7.095 32.324,-7.095c11.354,-0 21.393,2.102 30.118,6.307c8.725,4.205 16.031,9.934 21.918,17.187c5.886,7.254 10.354,15.663 13.402,25.23c3.049,9.566 4.573,19.815 4.573,30.748c0,1.051 -0.052,2.26 -0.157,3.626c-0.106,1.367 -0.158,2.471 -0.158,3.312l-130.876,-0Zm118.892,-10.407c-0.42,-8.831 -1.892,-17.188 -4.415,-25.072c-2.523,-7.884 -6.255,-14.822 -11.195,-20.814c-4.941,-5.992 -10.933,-10.775 -17.976,-14.349c-7.043,-3.574 -15.085,-5.361 -24.126,-5.361c-9.671,-0 -18.186,1.839 -25.544,5.519c-7.359,3.679 -13.561,8.514 -18.607,14.506c-5.045,5.992 -8.935,12.983 -11.668,20.972c-2.733,7.989 -4.415,16.189 -5.046,24.599l118.577,-0Z" style="fill:#f7faff;fill-rule:nonzero;stroke:#fff;stroke-width:4.17px;"/><path d="M472.309,380.414l-35.321,-0l0,113.215c0,6.518 0.736,11.669 2.208,15.453c1.472,3.785 3.732,6.675 6.78,8.673c3.049,1.997 6.728,3.206 11.038,3.626c4.31,0.421 9.303,0.526 14.98,0.316l-0,10.407c-6.097,0.42 -12.037,0.368 -17.818,-0.158c-5.782,-0.526 -10.88,-2.102 -15.296,-4.73c-4.415,-2.628 -7.936,-6.57 -10.564,-11.827c-2.628,-5.256 -3.732,-12.509 -3.312,-21.76l0,-113.215l-29.959,-0l-0,-10.408l29.959,0l0,-50.458l11.984,0l0,50.458l35.321,0l0,10.408Zm34.059,25.544l0.947,0c1.471,-5.256 4.152,-10.197 8.041,-14.822c3.89,-4.625 8.62,-8.62 14.192,-11.984c5.571,-3.364 11.773,-5.939 18.606,-7.726c6.833,-1.787 13.929,-2.576 21.287,-2.366l0,11.984c-6.307,-0.841 -13.508,-0.21 -21.602,1.892c-8.095,2.103 -15.821,6.728 -23.179,13.876c-2.944,3.154 -5.519,6.203 -7.727,9.146c-2.207,2.943 -4.047,6.202 -5.519,9.776c-1.471,3.574 -2.628,7.569 -3.469,11.984c-0.841,4.415 -1.366,9.671 -1.577,15.768l0,88.618l-11.983,-0l-0,-162.098l11.983,0l0,35.952Zm183.227,93.979l-0.631,-0c-1.892,4.835 -4.625,9.408 -8.199,13.718c-3.574,4.31 -7.937,8.147 -13.088,11.511c-5.151,3.364 -10.985,5.992 -17.502,7.884c-6.518,1.892 -13.666,2.838 -21.445,2.838c-17.24,0 -30.591,-3.732 -40.051,-11.195c-9.461,-7.464 -14.192,-18.975 -14.192,-34.533c0,-9.461 1.892,-17.187 5.677,-23.179c3.784,-5.992 8.567,-10.722 14.349,-14.191c5.781,-3.469 12.194,-5.94 19.237,-7.411c7.043,-1.472 13.823,-2.523 20.341,-3.154l18.606,-1.577c8.62,-0.631 15.401,-1.629 20.341,-2.996c4.941,-1.366 8.673,-3.259 11.196,-5.676c2.523,-2.418 4.1,-5.519 4.73,-9.304c0.631,-3.784 0.946,-8.515 0.946,-14.191c0,-4.415 -0.841,-8.515 -2.522,-12.299c-1.682,-3.785 -4.31,-7.149 -7.885,-10.092c-3.574,-2.943 -8.199,-5.256 -13.876,-6.938c-5.676,-1.682 -12.614,-2.523 -20.814,-2.523c-14.506,0 -26.227,3.574 -35.163,10.723c-8.935,7.148 -13.823,17.975 -14.664,32.482l-11.984,0c0.841,-17.871 6.57,-31.274 17.187,-40.209c10.618,-8.935 25.703,-13.403 45.255,-13.403c19.553,0 33.797,3.837 42.732,11.511c8.935,7.674 13.403,17.713 13.403,30.117l-0,94.294c-0,2.313 0.053,4.625 0.158,6.938c0.105,2.313 0.473,4.415 1.103,6.307c0.631,1.893 1.682,3.417 3.154,4.573c1.472,1.157 3.574,1.735 6.307,1.735c2.103,-0 5.046,-0.316 8.831,-0.946l-0,10.091c-3.154,0.841 -6.413,1.262 -9.777,1.262c-4.835,-0 -8.672,-0.631 -11.511,-1.892c-2.838,-1.262 -4.993,-2.944 -6.465,-5.046c-1.471,-2.103 -2.47,-4.573 -2.995,-7.411c-0.526,-2.839 -0.789,-5.94 -0.789,-9.304l0,-8.514Zm0,-59.92c-2.943,3.575 -7.411,5.992 -13.403,7.254c-5.992,1.261 -12.667,2.207 -20.026,2.838l-20.183,1.892c-5.887,0.631 -11.773,1.524 -17.66,2.681c-5.887,1.156 -11.196,3.101 -15.926,5.834c-4.731,2.733 -8.568,6.465 -11.511,11.195c-2.943,4.731 -4.415,10.881 -4.415,18.449c-0,11.984 3.784,20.867 11.353,26.649c7.569,5.781 17.976,8.672 31.221,8.672c13.666,0 24.493,-2.47 32.483,-7.411c7.989,-4.941 14.086,-10.617 18.291,-17.03c4.205,-6.412 6.885,-12.614 8.042,-18.606c1.156,-5.992 1.734,-10.039 1.734,-12.142l0,-30.275Zm172.189,-19.868c-0.631,-7.148 -2.47,-13.455 -5.519,-18.921c-3.048,-5.467 -6.99,-9.987 -11.826,-13.561c-4.836,-3.574 -10.46,-6.307 -16.872,-8.2c-6.412,-1.892 -13.298,-2.838 -20.656,-2.838c-10.092,0 -19.027,2.05 -26.806,6.15c-7.779,4.099 -14.297,9.566 -19.553,16.399c-5.256,6.833 -9.251,14.612 -11.984,23.337c-2.733,8.725 -4.099,17.713 -4.099,26.963c-0,10.933 1.261,21.025 3.784,30.275c2.523,9.251 6.412,17.293 11.668,24.126c5.256,6.833 11.774,12.141 19.553,15.926c7.779,3.784 16.925,5.676 27.437,5.676c7.568,0 14.559,-1.261 20.971,-3.784c6.413,-2.523 12.089,-5.992 17.03,-10.407c4.941,-4.415 8.988,-9.724 12.142,-15.926c3.153,-6.202 5.256,-12.983 6.307,-20.341l11.984,-0c-1.262,9.671 -3.89,18.291 -7.884,25.86c-3.995,7.568 -9.041,13.928 -15.138,19.079c-6.097,5.151 -13.035,9.093 -20.814,11.826c-7.779,2.734 -15.978,4.1 -24.598,4.1c-13.246,0 -24.546,-2.365 -33.902,-7.096c-9.356,-4.73 -17.03,-11.09 -23.022,-19.079c-5.992,-7.989 -10.407,-17.187 -13.245,-27.594c-2.838,-10.408 -4.257,-21.288 -4.257,-32.641c-0,-11.353 1.629,-22.075 4.888,-32.167c3.259,-10.092 8.042,-18.922 14.349,-26.49c6.307,-7.569 14.086,-13.561 23.337,-17.976c9.251,-4.415 19.868,-6.623 31.852,-6.623c8.83,0 17.082,1.104 24.756,3.311c7.674,2.208 14.507,5.519 20.498,9.934c5.992,4.416 10.881,10.04 14.665,16.872c3.784,6.833 6.097,14.77 6.938,23.81l-11.984,0Zm42.259,-113.215l11.984,-0l-0,149.167l99.97,-86.095l17.345,0l-70.957,60.55l76.003,101.548l-16.399,-0l-69.065,-92.402l-36.897,31.221l-0,61.181l-11.984,-0l-0,-225.17Z" style="fill:#fff;fill-rule:nonzero;stroke:#fff;stroke-width:4.17px;"/><g><path d="M1402.09,376.937c-46.39,38.925 -73.181,96.379 -73.181,156.936c0,113.068 91.797,204.865 204.865,204.865c113.069,0 204.866,-91.797 204.866,-204.865c-0,-60.557 -26.791,-118.011 -73.181,-156.936c46.39,38.925 73.181,96.379 73.181,156.936c-0,113.068 -91.797,204.865 -204.866,204.865c-113.068,0 -204.865,-91.797 -204.865,-204.865c0,-60.557 26.791,-118.011 73.181,-156.936Z" style="fill:none;stroke:#fff;stroke-width:21.1px;stroke-linecap:round;stroke-miterlimit:1.5;"/><circle cx="1535.77" cy="535.888" r="258.487" style="fill:none;stroke:#fff;stroke-width:21.1px;stroke-linecap:round;stroke-miterlimit:1.5;"/><rect x="1455.86" y="441.596" width="159.819" height="78.614" style="fill:none;stroke:#fff;stroke-width:21.1px;stroke-linecap:round;stroke-miterlimit:1.5;"/><path d="M1627.91,359.635l0,70.674c0,6.23 -5.057,11.287 -11.287,11.287l-161.708,0c-6.229,0 -11.287,-5.057 -11.287,-11.287l0,-100.831" style="fill:none;stroke:#fff;stroke-width:21.1px;stroke-linecap:round;stroke-miterlimit:1.5;"/><path d="M1553.8,568.323l-0,88.427l-18.028,23.629l-18.027,-23.629l-0,-88.427l36.055,-0Z" style="fill:none;stroke:#fff;stroke-width:21.1px;stroke-linecap:round;stroke-miterlimit:1.5;"/><path d="M1617.76,626.417l27.903,-28.214" style="fill:none;stroke:#fff;stroke-width:21.1px;stroke-linecap:round;stroke-miterlimit:1.5;"/><path d="M1453.79,626.417l-27.902,-28.214" style="fill:none;stroke:#fff;stroke-width:21.1px;stroke-linecap:round;stroke-miterlimit:1.5;"/><path d="M1483.05,653.346l-11.116,-10.151" style="fill:none;stroke:#fff;stroke-width:21.1px;stroke-linecap:round;stroke-miterlimit:1.5;"/><path d="M1588.49,653.346l11.116,-10.151" style="fill:none;stroke:#fff;stroke-width:21.1px;stroke-linecap:round;stroke-miterlimit:1.5;"/><path d="M1455.86,489.478l72.079,-0.12" style="fill:none;stroke:#fff;stroke-width:21.1px;stroke-linecap:round;stroke-miterlimit:1.5;"/><path d="M1563.42,489.512l20.079,-0.034" style="fill:none;stroke:#fff;stroke-width:21.1px;stroke-linecap:round;stroke-miterlimit:1.5;"/><rect x="1488.04" y="520.211" width="95.456" height="48.112" style="fill:none;stroke:#fff;stroke-width:21.1px;stroke-linecap:round;stroke-miterlimit:1.5;"/></g></g></svg>